<svg width="106" height="40" viewBox="0 0 106 40" fill="none" xmlns="http://www.w3.org/2000/svg">
<path d="M18.4609 38.3431C28.6566 38.3431 36.9219 29.7597 36.9219 19.1715C36.9219 8.58339 28.6566 0 18.4609 0C8.26525 0 0 8.58339 0 19.1715C0 29.7597 8.26525 38.3431 18.4609 38.3431Z" fill="#233974"/>
<path d="M9.02637 34.9076V3.39062H20.4126C22.7305 3.39062 24.5901 3.70948 25.9914 4.34719C27.3551 4.95281 28.5049 5.98174 29.2832 7.29284C30.0538 8.53336 30.4681 9.97621 30.4775 11.4524C30.4775 12.7989 30.1116 14.1182 29.4221 15.2585C28.7174 16.4481 27.6545 17.4083 26.2333 18.139C28.0695 18.6972 29.4808 19.6501 30.4671 20.9979C31.4534 22.3456 31.947 23.9368 31.948 25.7714C31.9604 27.197 31.6538 28.606 31.0523 29.8875C30.4552 31.1557 29.7132 32.134 28.8264 32.8223C27.9397 33.5107 26.8319 34.0275 25.5033 34.3727C24.1716 34.7251 22.5399 34.9008 20.6081 34.8998L9.02637 34.9076ZM13.0392 16.6414H19.6079C21.3874 16.6414 22.6638 16.5194 23.4371 16.2755C24.4583 15.9655 25.2281 15.4425 25.7466 14.7066C26.2651 13.9707 26.5239 13.0534 26.5229 11.9547C26.5421 10.9805 26.2902 10.0212 25.7974 9.19201C25.3221 8.40337 24.5857 7.82225 23.7267 7.55795C22.831 7.26545 21.2924 7.11868 19.1108 7.11765H13.0392V16.6414ZM13.0392 31.196H20.5962C21.89 31.196 22.8007 31.1444 23.3281 31.041C24.1464 30.909 24.9331 30.617 25.6466 30.1806C26.2976 29.7459 26.8261 29.1398 27.1783 28.424C27.5894 27.6056 27.7948 26.6927 27.7754 25.7698C27.7999 24.6796 27.4962 23.6087 26.9066 22.7063C26.3214 21.8345 25.4721 21.1911 24.4941 20.8785C23.467 20.5271 21.987 20.3514 20.0543 20.3514H13.0377L13.0392 31.196Z" fill="#E95F25"/>
<path d="M47.3078 34.9076V27.362H34.1406V23.8148L47.9901 3.39062H51.034V23.8148H55.1335V27.362H51.034V34.9076H47.3078ZM47.3078 23.8148V9.6044L37.8056 23.8148H47.3078Z" fill="#E95F25"/>
<path d="M75.8938 3.39062H79.9097V21.6025C79.9097 24.7714 79.5648 27.2871 78.8751 29.1496C78.1854 31.0121 76.9413 32.5278 75.1429 33.6967C73.3405 34.8647 70.9768 35.4486 68.0518 35.4486C65.2093 35.4486 62.8839 34.9396 61.0755 33.9215C59.3235 32.9708 57.951 31.4082 57.2 29.5093C56.4267 27.5806 56.04 24.945 56.04 21.6025V3.39062H60.0574V21.5792C60.0574 24.3172 60.3022 26.3326 60.7919 27.6256C61.2657 28.9043 62.1607 29.9673 63.3178 30.6255C64.5111 31.3283 65.9707 31.6797 67.6964 31.6797C70.6494 31.6797 72.7538 30.9847 74.0098 29.5945C75.2658 28.2044 75.8938 25.5316 75.8938 21.5761V3.39062Z" fill="#233974"/>
<path d="M81.6514 24.7831L85.4388 24.4389C85.6179 26.0151 86.0355 27.3071 86.6913 28.3148C87.3472 29.3225 88.3653 30.1396 89.7458 30.7659C91.2198 31.4069 92.8057 31.7236 94.4035 31.6961C95.9352 31.6961 97.2878 31.4594 98.4612 30.986C99.6346 30.5127 100.507 29.8657 101.08 29.045C101.638 28.2652 101.939 27.3191 101.938 26.3474C101.955 25.4112 101.663 24.4972 101.111 23.7568C100.559 23.0188 99.6475 22.3987 98.3776 21.8964C97.5645 21.5667 95.7636 21.054 92.9749 20.3584C90.1862 19.6629 88.233 19.0071 87.1153 18.3911C85.6672 17.6035 84.5874 16.6252 83.8758 15.4563C83.1636 14.2829 82.7934 12.9207 82.8098 11.5339C82.8107 9.94685 83.2659 8.39591 84.1176 7.0782C84.9865 5.69529 86.2559 4.64571 87.9259 3.92945C89.596 3.2132 91.4526 2.85455 93.4959 2.85352C95.7442 2.85352 97.7277 3.22973 99.4465 3.98217C101.165 4.7346 102.487 5.84206 103.412 7.30455C104.342 8.78293 104.858 10.5003 104.904 12.2656L101.054 12.5664C100.847 10.5737 100.147 9.06884 98.9538 8.05182C97.7605 7.03479 95.9969 6.52628 93.6631 6.52628C91.2347 6.52628 89.4651 6.98828 88.3544 7.91229C87.2437 8.83629 86.6878 9.95047 86.6869 11.2548C86.674 11.7815 86.7732 12.3047 86.9773 12.7871C87.1814 13.2694 87.4854 13.6991 87.8677 14.0454C88.639 14.7772 90.6574 15.526 93.9228 16.2919C97.1883 17.0578 99.4276 17.7296 100.641 18.3073C102.407 19.1528 103.712 20.2241 104.554 21.5212C105.403 22.8474 105.844 24.4107 105.817 26.0032C105.813 27.694 105.327 29.3457 104.421 30.7504C103.497 32.2335 102.169 33.3875 100.436 34.2123C98.7035 35.0371 96.7543 35.4505 94.5887 35.4526C91.8418 35.4526 89.5402 35.0392 87.6841 34.2123C85.8996 33.4434 84.378 32.1365 83.3159 30.4605C82.2531 28.7706 81.6757 26.8013 81.6514 24.7831Z" fill="#233974"/>
</svg>
