<svg width="34" height="34" viewBox="0 0 34 34" fill="none" xmlns="http://www.w3.org/2000/svg">
<g clip-path="url(#clip0_921_1877)">
<path d="M18.6165 16.9772L27.7355 8.79202C27.9157 8.60314 28.0099 8.36018 27.9992 8.11168C27.9885 7.86319 27.8737 7.62747 27.6778 7.45163C27.4819 7.27579 27.2193 7.17277 26.9425 7.16318C26.6656 7.15358 26.3949 7.2381 26.1845 7.39986L17.0655 15.585L7.9465 7.38998C7.73936 7.20406 7.45843 7.09961 7.1655 7.09961C6.87257 7.09961 6.59163 7.20406 6.3845 7.38998C6.17736 7.5759 6.061 7.82807 6.061 8.091C6.061 8.35393 6.17736 8.6061 6.3845 8.79202L15.5145 16.9772L6.3845 25.1623C6.26935 25.2508 6.17583 25.3598 6.1098 25.4823C6.04377 25.6047 6.00667 25.7382 6.00082 25.8741C5.99497 26.0101 6.02049 26.1457 6.0758 26.2724C6.1311 26.3991 6.21498 26.5142 6.32218 26.6104C6.42938 26.7066 6.55758 26.7819 6.69874 26.8316C6.8399 26.8812 6.99097 26.9041 7.14246 26.8989C7.29395 26.8936 7.44259 26.8603 7.57906 26.8011C7.71554 26.7418 7.83689 26.6578 7.9355 26.5545L17.0655 18.3693L26.1845 26.5545C26.3949 26.7162 26.6656 26.8008 26.9425 26.7912C27.2193 26.7816 27.4819 26.6786 27.6778 26.5027C27.8737 26.3269 27.9885 26.0911 27.9992 25.8427C28.0099 25.5942 27.9157 25.3512 27.7355 25.1623L18.6165 16.9772Z" fill="#9F9FA1"/>
</g>
<defs>
<clipPath id="clip0_921_1877">
<rect width="34" height="34" fill="white"/>
</clipPath>
</defs>
</svg>
