<svg width="70" height="71" viewBox="0 0 70 71" fill="none" xmlns="http://www.w3.org/2000/svg">
<path d="M6.03183 16.4895L31.9172 42.3778C32.683 43.1441 33.7059 43.5991 34.7878 43.6546C35.8697 43.7101 36.9337 43.3622 37.7739 42.6782L38.1064 42.3778L63.9743 16.507C64.0589 16.8278 64.1143 17.1545 64.1435 17.4899L64.1668 18.0003V53.0003C64.1673 54.472 63.6115 55.8895 62.6108 56.9686C61.6101 58.0477 60.2385 58.7087 58.771 58.8191L58.3335 58.8337H11.6668C10.1951 58.8341 8.77768 58.2783 7.69856 57.2776C6.61945 56.2769 5.95846 54.9054 5.84808 53.4378L5.8335 53.0003V18.0003C5.8335 17.6503 5.86266 17.312 5.921 16.9795L6.03183 16.4895ZM58.3335 12.167C58.6864 12.167 59.0335 12.1962 59.3689 12.2574L59.8647 12.3712L35.0147 37.2212L10.156 12.3653C10.4768 12.2778 10.8093 12.2195 11.1477 12.1903L11.6668 12.167H58.3335Z" fill="white"/>
</svg>
