<svg width="70" height="71" viewBox="0 0 70 71" fill="none" xmlns="http://www.w3.org/2000/svg">
<path d="M34.8995 33.0355C32.9656 33.0355 31.1109 32.2673 29.7435 30.8998C28.376 29.5323 27.6078 27.6777 27.6078 25.7438C27.6078 23.8099 28.376 21.9553 29.7435 20.5878C31.1109 19.2204 32.9656 18.4521 34.8995 18.4521C36.8333 18.4521 38.688 19.2204 40.0554 20.5878C41.4229 21.9553 42.1911 23.8099 42.1911 25.7438C42.1911 26.7014 42.0025 27.6495 41.6361 28.5342C41.2696 29.4189 40.7325 30.2227 40.0554 30.8998C39.3783 31.5769 38.5745 32.114 37.6899 32.4804C36.8052 32.8469 35.857 33.0355 34.8995 33.0355ZM34.8995 5.32715C29.4846 5.32715 24.2916 7.47818 20.4627 11.3071C16.6338 15.1359 14.4828 20.329 14.4828 25.7438C14.4828 41.0563 34.8995 63.6605 34.8995 63.6605C34.8995 63.6605 55.3161 41.0563 55.3161 25.7438C55.3161 20.329 53.1651 15.1359 49.3362 11.3071C45.5073 7.47818 40.3143 5.32715 34.8995 5.32715Z" fill="white"/>
</svg>
