<svg width="71" height="71" viewBox="0 0 71 71" fill="none" xmlns="http://www.w3.org/2000/svg">
<path d="M19.8083 31.9708C24.0083 40.225 30.775 46.9625 39.0292 51.1917L45.4458 44.775C46.2333 43.9875 47.4 43.725 48.4208 44.075C51.6875 45.1542 55.2167 45.7375 58.8333 45.7375C60.4375 45.7375 61.75 47.05 61.75 48.6542V58.8333C61.75 60.4375 60.4375 61.75 58.8333 61.75C31.4458 61.75 9.25 39.5542 9.25 12.1667C9.25 10.5625 10.5625 9.25 12.1667 9.25H22.375C23.9792 9.25 25.2917 10.5625 25.2917 12.1667C25.2917 15.8125 25.875 19.3125 26.9542 22.5792C27.275 23.6 27.0417 24.7375 26.225 25.5542L19.8083 31.9708Z" fill="white"/>
</svg>
