<svg width="20" height="20" viewBox="0 0 20 20" fill="none" xmlns="http://www.w3.org/2000/svg">
<path d="M9.58333 18.3327C8.30556 18.3327 7.22222 17.8882 6.33333 16.9993C5.44444 16.1105 5 15.0271 5 13.7493V4.99935C5 4.08268 5.32639 3.29796 5.97917 2.64518C6.63194 1.9924 7.41667 1.66602 8.33333 1.66602C9.25 1.66602 10.0347 1.9924 10.6875 2.64518C11.3403 3.29796 11.6667 4.08268 11.6667 4.99935V11.666H10.4167V4.99935C10.4167 4.41602 10.2153 3.92296 9.8125 3.52018C9.40972 3.1174 8.91667 2.91602 8.33333 2.91602C7.75 2.91602 7.25694 3.1174 6.85417 3.52018C6.45139 3.92296 6.25 4.41602 6.25 4.99935V13.7493C6.25 14.666 6.57639 15.4507 7.22917 16.1035C7.88194 16.7563 8.66667 17.0827 9.58333 17.0827C9.98611 17.0827 10.3647 17.0166 10.7192 16.8843C11.0736 16.7521 11.3894 16.5682 11.6667 16.3327V17.8327C11.3472 17.9855 11.0139 18.1071 10.6667 18.1977C10.3194 18.2882 9.95833 18.3332 9.58333 18.3327ZM13.3333 17.4993V14.9993H10.8333V13.3327H13.3333V10.8327H15V13.3327H17.5V14.9993H15V17.4993H13.3333ZM9.58333 13.7493V14.9993C9 14.9993 8.50694 14.798 8.10417 14.3952C7.70139 13.9924 7.5 13.4993 7.5 12.916V4.99935H8.75V12.916C8.75 13.1521 8.83 13.3502 8.99 13.5102C9.15 13.6702 9.34778 13.7499 9.58333 13.7493ZM12.9167 9.16602V4.99935H14.1667V9.16602H12.9167Z" fill="#233974"/>
</svg>
