<svg width="24" height="24" viewBox="0 0 24 24" fill="none" xmlns="http://www.w3.org/2000/svg">
<path d="M11.9658 11.1553C11.3028 11.1553 10.6669 10.8919 10.1981 10.423C9.72921 9.9542 9.46582 9.31831 9.46582 8.65527C9.46582 7.99223 9.72921 7.35635 10.1981 6.88751C10.6669 6.41867 11.3028 6.15527 11.9658 6.15527C12.6289 6.15527 13.2647 6.41867 13.7336 6.88751C14.2024 7.35635 14.4658 7.99223 14.4658 8.65527C14.4658 8.98358 14.4012 9.30867 14.2755 9.61198C14.1499 9.9153 13.9657 10.1909 13.7336 10.423C13.5014 10.6552 13.2258 10.8393 12.9225 10.965C12.6192 11.0906 12.2941 11.1553 11.9658 11.1553ZM11.9658 1.65527C10.1093 1.65527 8.32883 2.39277 7.01607 3.70553C5.70332 5.01828 4.96582 6.79876 4.96582 8.65527C4.96582 13.9053 11.9658 21.6553 11.9658 21.6553C11.9658 21.6553 18.9658 13.9053 18.9658 8.65527C18.9658 6.79876 18.2283 5.01828 16.9156 3.70553C15.6028 2.39277 13.8223 1.65527 11.9658 1.65527Z" fill="#233974"/>
</svg>
