<svg width="24" height="25" viewBox="0 0 24 25" fill="none" xmlns="http://www.w3.org/2000/svg">
<path d="M6.62 10.9228C8.06 13.7528 10.38 16.0628 13.21 17.5128L15.41 15.3128C15.68 15.0428 16.08 14.9528 16.43 15.0728C17.55 15.4428 18.76 15.6428 20 15.6428C20.55 15.6428 21 16.0928 21 16.6428V20.1328C21 20.6828 20.55 21.1328 20 21.1328C10.61 21.1328 3 13.5228 3 4.13281C3 3.58281 3.45 3.13281 4 3.13281H7.5C8.05 3.13281 8.5 3.58281 8.5 4.13281C8.5 5.38281 8.7 6.58281 9.07 7.70281C9.18 8.05281 9.1 8.44281 8.82 8.72281L6.62 10.9228Z" fill="#233974"/>
</svg>
